<svg xmlns="http://www.svg.org/2000/svg" viewBox="0 0 24 24" fill="none" stroke="#2563eb" stroke-width="2" stroke-linecap="round" stroke-linejoin="round" class="lucide lucide-waves"><path d="M2 6c.6 0 1.2-.2 1.7-.6l2-1.7c1-.9 2.5-.9 3.5 0l2 1.7c.5.4 1.1.6 1.7.6s1.2-.2 1.7-.6l2-1.7c1-.9 2.5-.9 3.5 0l2 1.7c.5.4 1.1.6 1.7.6"/><path d="M2 12c.6 0 1.2-.2 1.7-.6l2-1.7c1-.9 2.5-.9 3.5 0l2 1.7c.5.4 1.1.6 1.7.6s1.2-.2 1.7-.6l2-1.7c1-.9 2.5-.9 3.5 0l2 1.7c.5.4 1.1.6 1.7.6"/><path d="M2 18c.6 0 1.2-.2 1.7-.6l2-1.7c1-.9 2.5-.9 3.5 0l2 1.7c.5.4 1.1.6 1.7.6s1.2-.2 1.7-.6l2-1.7c1-.9 2.5-.9 3.5 0l2 1.7c.5.4 1.1.6 1.7.6"/></svg>
